<svg width="12" height="13" viewBox="0 0 12 13" fill="none" xmlns="http://www.w3.org/2000/svg">
<path d="M9.5 8.72534H10.5C10.8 8.72534 11 8.52534 11 8.22534V6.72534C11 6.27534 10.65 5.87534 10.25 5.77534C9.35 5.52534 8 5.22534 8 5.22534C8 5.22534 7.35 4.52534 6.9 4.07534C6.65 3.87534 6.35 3.72534 6 3.72534H2.5C2.2 3.72534 1.95 3.92534 1.8 4.17534L1.1 5.62534C1.03379 5.81845 1 6.02119 1 6.22534V8.22534C1 8.52534 1.2 8.72534 1.5 8.72534H2.5" stroke="white" stroke-width="1.5" stroke-linecap="round" stroke-linejoin="round"/>
<path d="M3.5 9.72534C4.05228 9.72534 4.5 9.27763 4.5 8.72534C4.5 8.17306 4.05228 7.72534 3.5 7.72534C2.94772 7.72534 2.5 8.17306 2.5 8.72534C2.5 9.27763 2.94772 9.72534 3.5 9.72534Z" stroke="white" stroke-width="1.5" stroke-linecap="round" stroke-linejoin="round"/>
<path d="M4.5 8.72534H7.5" stroke="white" stroke-width="2" stroke-linecap="round" stroke-linejoin="round"/>
<path d="M8.5 9.72534C9.05228 9.72534 9.5 9.27763 9.5 8.72534C9.5 8.17306 9.05228 7.72534 8.5 7.72534C7.94772 7.72534 7.5 8.17306 7.5 8.72534C7.5 9.27763 7.94772 9.72534 8.5 9.72534Z" stroke="white" stroke-width="1.5" stroke-linecap="round" stroke-linejoin="round"/>
</svg>
