<svg width="12" height="13" viewBox="0 0 12 13" fill="none" xmlns="http://www.w3.org/2000/svg">
<g clip-path="url(#clip0_490_388)">
<path d="M7.85342 10.8718C7.75966 10.9655 7.63251 11.0182 7.49992 11.0182C7.36734 11.0182 7.24019 10.9655 7.14642 10.8718L6.35342 10.0788C6.25969 9.985 6.20703 9.85785 6.20703 9.72527C6.20703 9.59268 6.25969 9.46553 6.35342 9.37177L9.14642 6.57877C9.24019 6.48503 9.36734 6.43237 9.49992 6.43237C9.63251 6.43237 9.75966 6.48503 9.85343 6.57877L10.6464 7.37177C10.7402 7.46553 10.7928 7.59268 10.7928 7.72527C10.7928 7.85785 10.7402 7.985 10.6464 8.07877L7.85342 10.8718Z" stroke="white" stroke-width="1.5" stroke-linecap="round" stroke-linejoin="round"/>
<path d="M9 6.72534L8.3125 3.28834C8.2938 3.19483 8.24875 3.10862 8.18266 3.03988C8.11657 2.97113 8.0322 2.92272 7.9395 2.90034L1.6175 1.23934C1.53422 1.21921 1.44715 1.22081 1.36467 1.24401C1.28218 1.2672 1.20704 1.3112 1.14645 1.37179C1.08586 1.43238 1.04186 1.50752 1.01866 1.59001C0.995471 1.6725 0.993866 1.75956 1.014 1.84284L2.675 8.16484C2.69737 8.25755 2.74579 8.34192 2.81453 8.408C2.88328 8.47409 2.96949 8.51914 3.063 8.53784L6.5 9.22534" stroke="white" stroke-width="1.5" stroke-linecap="round" stroke-linejoin="round"/>
<path d="M1.15039 1.37524L4.79339 5.01824" stroke="white" stroke-width="1.5" stroke-linecap="round" stroke-linejoin="round"/>
<path d="M5.5 6.72534C6.05228 6.72534 6.5 6.27763 6.5 5.72534C6.5 5.17306 6.05228 4.72534 5.5 4.72534C4.94772 4.72534 4.5 5.17306 4.5 5.72534C4.5 6.27763 4.94772 6.72534 5.5 6.72534Z" stroke="white" stroke-width="1.5" stroke-linecap="round" stroke-linejoin="round"/>
</g>
<defs>
<clipPath id="clip0_490_388">
<rect width="12" height="12" fill="white" transform="translate(0 0.225342)"/>
</clipPath>
</defs>
</svg>
