<svg width="30" height="30" viewBox="0 0 30 30" fill="none" xmlns="http://www.w3.org/2000/svg">
<rect width="30" height="30" fill="black"/>
<g clip-path="url(#clip0_420_4108)">
<path d="M24.9999 19.92V22.92C25.0011 23.1985 24.944 23.4741 24.8324 23.7293C24.7209 23.9845 24.5572 24.2136 24.352 24.4018C24.1468 24.5901 23.9045 24.7335 23.6407 24.8227C23.3769 24.9119 23.0973 24.945 22.8199 24.92C19.7428 24.5856 16.7869 23.5341 14.1899 21.85C11.7738 20.3146 9.72527 18.2661 8.18993 15.85C6.49991 13.2412 5.44818 10.271 5.11993 7.17997C5.09494 6.90344 5.12781 6.62474 5.21643 6.3616C5.30506 6.09846 5.4475 5.85666 5.6347 5.6516C5.82189 5.44653 6.04974 5.28268 6.30372 5.1705C6.55771 5.05831 6.83227 5.00024 7.10993 4.99997H10.1099C10.5952 4.9952 11.0657 5.16705 11.4337 5.48351C11.8017 5.79996 12.042 6.23942 12.1099 6.71997C12.2366 7.68004 12.4714 8.6227 12.8099 9.52997C12.9445 9.8879 12.9736 10.2769 12.8938 10.6509C12.8141 11.0248 12.6288 11.3681 12.3599 11.64L11.0899 12.91C12.5135 15.4135 14.5864 17.4864 17.0899 18.91L18.3599 17.64C18.6318 17.3711 18.9751 17.1858 19.3491 17.1061C19.723 17.0263 20.112 17.0554 20.4699 17.19C21.3772 17.5285 22.3199 17.7634 23.2799 17.89C23.7657 17.9585 24.2093 18.2032 24.5265 18.5775C24.8436 18.9518 25.0121 19.4296 24.9999 19.92Z" stroke="white" stroke-width="3" stroke-linecap="round" stroke-linejoin="round"/>
</g>
<defs>
<clipPath id="clip0_420_4108">
<rect width="24" height="24" fill="white" transform="translate(3 3)"/>
</clipPath>
</defs>
</svg>
