<svg width="13" height="16" viewBox="0 0 13 16" fill="none" xmlns="http://www.w3.org/2000/svg">
<path d="M8.55032 14.693V11.9594C8.64539 11.1033 8.39992 10.2442 7.86692 9.56754C9.91711 9.56754 11.9673 8.20075 11.9673 5.80887C12.022 4.95462 11.7828 4.11404 11.2839 3.41698C11.4753 2.63107 11.4753 1.811 11.2839 1.02509C11.2839 1.02509 10.6005 1.02509 9.23371 2.05019C7.42955 1.70849 5.57071 1.70849 3.76655 2.05019C2.39975 1.02509 1.71636 1.02509 1.71636 1.02509C1.51134 1.811 1.51134 2.63107 1.71636 3.41698C1.21876 4.11123 0.977246 4.95653 1.03296 5.80887C1.03296 8.20075 3.08315 9.56754 5.13334 9.56754C4.86681 9.90241 4.66863 10.2851 4.55245 10.6951C4.43627 11.1052 4.4021 11.5357 4.44994 11.9594V14.693" stroke="black" stroke-width="2" stroke-linecap="round" stroke-linejoin="round"/>
</svg>
