<svg width="104" height="104" viewBox="0 0 104 104" fill="none" xmlns="http://www.w3.org/2000/svg">
<circle cx="52" cy="52" r="52" fill="white"/>
<path d="M53.7058 40.776C56.2712 40.776 58.5072 41.4173 60.4138 42.7C62.3552 43.948 63.8805 45.6987 64.9898 47.952C66.0992 50.2053 66.6538 52.788 66.6538 55.7C66.6538 58.5773 66.0992 61.1427 64.9898 63.396C63.8805 65.6493 62.3552 67.4173 60.4138 68.7C58.5072 69.9827 56.2712 70.624 53.7058 70.624C51.7298 70.624 49.9098 70.208 48.2458 69.376C46.6165 68.5093 45.2992 67.3827 44.2938 65.996L44.1378 70H39.1458V31.78H44.3978V45.196C45.4032 43.8093 46.7205 42.7347 48.3498 41.972C49.9792 41.1747 51.7645 40.776 53.7058 40.776ZM52.5618 66.204C54.3298 66.204 55.8725 65.7533 57.1898 64.852C58.5072 63.9507 59.5298 62.72 60.2578 61.16C60.9858 59.5653 61.3498 57.7453 61.3498 55.7C61.3498 53.62 60.9858 51.8 60.2578 50.24C59.5298 48.6453 58.5072 47.4147 57.1898 46.548C55.8725 45.6467 54.3298 45.196 52.5618 45.196C50.7245 45.196 49.0778 45.716 47.6218 46.756C46.1658 47.7613 45.0912 49.1827 44.3978 51.02V60.328C45.0912 62.1307 46.1658 63.5693 47.6218 64.644C49.0778 65.684 50.7245 66.204 52.5618 66.204Z" fill="black"/>
</svg>
